<svg width="32" height="32" viewBox="0 0 32 32" fill="none" xmlns="http://www.w3.org/2000/svg">
<g clip-path="url(#clip0_232_1137)">
<path d="M9.14286 0C10.4071 0 11.4286 0.89375 11.4286 2V4H20.5714V2C20.5714 0.89375 21.5929 0 22.8571 0C24.1214 0 25.1429 0.89375 25.1429 2V4H28.5714C30.4643 4 32 5.34375 32 7V10H0V7C0 5.34375 1.53571 4 3.42857 4H6.85714V2C6.85714 0.89375 7.87857 0 9.14286 0ZM0 12H32V29C32 30.6562 30.4643 32 28.5714 32H3.42857C1.53571 32 0 30.6562 0 29V12ZM4.57143 17V19C4.57143 19.55 5.08571 20 5.71429 20H8C8.62857 20 9.14286 19.55 9.14286 19V17C9.14286 16.45 8.62857 16 8 16H5.71429C5.08571 16 4.57143 16.45 4.57143 17ZM13.7143 17V19C13.7143 19.55 14.2286 20 14.8571 20H17.1429C17.7714 20 18.2857 19.55 18.2857 19V17C18.2857 16.45 17.7714 16 17.1429 16H14.8571C14.2286 16 13.7143 16.45 13.7143 17ZM24 16C23.3714 16 22.8571 16.45 22.8571 17V19C22.8571 19.55 23.3714 20 24 20H26.2857C26.9143 20 27.4286 19.55 27.4286 19V17C27.4286 16.45 26.9143 16 26.2857 16H24ZM4.57143 25V27C4.57143 27.55 5.08571 28 5.71429 28H8C8.62857 28 9.14286 27.55 9.14286 27V25C9.14286 24.45 8.62857 24 8 24H5.71429C5.08571 24 4.57143 24.45 4.57143 25ZM14.8571 24C14.2286 24 13.7143 24.45 13.7143 25V27C13.7143 27.55 14.2286 28 14.8571 28H17.1429C17.7714 28 18.2857 27.55 18.2857 27V25C18.2857 24.45 17.7714 24 17.1429 24H14.8571ZM22.8571 25V27C22.8571 27.55 23.3714 28 24 28H26.2857C26.9143 28 27.4286 27.55 27.4286 27V25C27.4286 24.45 26.9143 24 26.2857 24H24C23.3714 24 22.8571 24.45 22.8571 25Z" fill="black"/>
</g>
<defs>
<clipPath id="clip0_232_1137">
<rect width="32" height="32" fill="white"/>
</clipPath>
</defs>
</svg>
