<svg width="32" height="32" viewBox="0 0 32 32" fill="none" xmlns="http://www.w3.org/2000/svg">
<g clip-path="url(#clip0_232_1133)">
<path d="M31.9889 15.9688C31.9889 17.0938 31.1556 17.975 30.2111 17.975H28.4333L28.4722 27.9875C28.4722 28.1562 28.4611 28.325 28.4444 28.4937V29.5063C28.4444 30.8875 27.45 32.0062 26.2222 32.0062H25.3333C25.2722 32.0062 25.2111 32.0062 25.15 32C25.0722 32.0062 24.9944 32.0062 24.9167 32.0062L23.1111 32H21.7778C20.55 32 19.5556 30.8813 19.5556 29.5V28V24C19.5556 22.8937 18.7611 22 17.7778 22H14.2222C13.2389 22 12.4444 22.8937 12.4444 24V28V29.5C12.4444 30.8813 11.45 32 10.2222 32H8.88889H7.11667C7.03333 32 6.95 31.9937 6.86667 31.9875C6.8 31.9937 6.73333 32 6.66667 32H5.77778C4.55 32 3.55556 30.8813 3.55556 29.5V22.5C3.55556 22.4438 3.55556 22.3813 3.56111 22.325V17.9688H1.78333C0.783333 17.9688 0.00555563 17.0938 0.00555563 15.9625C0.00555563 15.4 0.172222 14.9 0.561111 14.4625L14.8 0.5C15.1889 0.0625 15.6333 0 16.0222 0C16.4111 0 16.8556 0.125 17.1889 0.4375L31.3778 14.4688C31.8222 14.9062 32.0444 15.4062 31.9889 15.9688Z" fill="#4AC4D4"/>
</g>
<defs>
<clipPath id="clip0_232_1133">
<rect width="32" height="32" fill="white"/>
</clipPath>
</defs>
</svg>
