<svg width="201" height="47" viewBox="0 0 201 47" fill="none" xmlns="http://www.w3.org/2000/svg">
<path d="M2.66675 23.7333C9.77786 -3.06667 16.889 -3.06667 24.0001 23.7333C31.1112 50.5333 38.2223 50.5333 45.3334 23.7333C52.4445 -3.06667 59.5556 -3.06667 66.6667 23.7333" stroke="#2196F3" stroke-width="5.33333" stroke-linecap="round"/>
<path d="M75.5328 14.8144C75.7717 14.8144 76.0192 14.8827 76.2752 15.0192C76.5483 15.1387 76.7531 15.3008 76.8896 15.5056L83.1104 25.08L81.8304 25.0288L88.2048 15.5056C88.5291 15.0448 88.9472 14.8144 89.4592 14.8144C89.8688 14.8144 90.2357 14.9595 90.56 15.2496C90.8843 15.5397 91.0464 15.9152 91.0464 16.376V31.1984C91.0464 31.6421 90.9013 32.0176 90.6112 32.3248C90.3211 32.6149 89.9371 32.76 89.4592 32.76C88.9813 32.76 88.5888 32.6149 88.2816 32.3248C87.9915 32.0176 87.8464 31.6421 87.8464 31.1984V19.1408L88.8448 19.3712L83.6224 27.3328C83.4688 27.5205 83.2725 27.6827 83.0336 27.8192C82.8117 27.9557 82.5813 28.0155 82.3424 27.9984C82.1205 28.0155 81.8901 27.9557 81.6512 27.8192C81.4293 27.6827 81.2416 27.5205 81.088 27.3328L76.1984 19.6016L76.864 18.2448V31.1984C76.864 31.6421 76.7275 32.0176 76.4544 32.3248C76.1813 32.6149 75.8229 32.76 75.3792 32.76C74.9525 32.76 74.6027 32.6149 74.3296 32.3248C74.0565 32.0176 73.92 31.6421 73.92 31.1984V16.376C73.92 15.9493 74.0736 15.5824 74.3808 15.2752C74.7051 14.968 75.0891 14.8144 75.5328 14.8144ZM101.09 33.016C99.6395 33.016 98.3766 32.7173 97.3014 32.12C96.2433 31.5056 95.4241 30.6779 94.8438 29.6368C94.2806 28.5957 93.999 27.4181 93.999 26.104C93.999 24.568 94.3062 23.2624 94.9206 22.1872C95.5521 21.0949 96.3713 20.2587 97.3782 19.6784C98.3851 19.0981 99.4518 18.808 100.578 18.808C101.449 18.808 102.268 18.9872 103.036 19.3456C103.821 19.704 104.512 20.1989 105.109 20.8304C105.707 21.4448 106.176 22.1616 106.517 22.9808C106.876 23.8 107.055 24.6704 107.055 25.592C107.038 26.0016 106.876 26.3344 106.569 26.5904C106.261 26.8464 105.903 26.9744 105.493 26.9744H95.7142L94.9462 24.4144H104.341L103.778 24.9264V24.2352C103.744 23.7403 103.565 23.2965 103.241 22.904C102.933 22.5115 102.541 22.2043 102.063 21.9824C101.602 21.7435 101.107 21.624 100.578 21.624C100.066 21.624 99.5883 21.6923 99.1446 21.8288C98.7009 21.9653 98.3169 22.1957 97.9926 22.52C97.6683 22.8443 97.4123 23.2795 97.2246 23.8256C97.0369 24.3717 96.943 25.0629 96.943 25.8992C96.943 26.8208 97.1307 27.6059 97.5062 28.2544C97.8987 28.8859 98.3937 29.3723 98.991 29.7136C99.6054 30.0379 100.254 30.2 100.937 30.2C101.568 30.2 102.072 30.1488 102.447 30.0464C102.822 29.944 103.121 29.8245 103.343 29.688C103.582 29.5344 103.795 29.4064 103.983 29.304C104.29 29.1504 104.58 29.0736 104.853 29.0736C105.229 29.0736 105.536 29.2016 105.775 29.4576C106.031 29.7136 106.159 30.0123 106.159 30.3536C106.159 30.8144 105.92 31.2325 105.442 31.608C104.998 31.9835 104.376 32.3163 103.573 32.6064C102.771 32.8795 101.944 33.016 101.09 33.016ZM120.952 13.816C121.396 13.816 121.762 13.9611 122.053 14.2512C122.343 14.5413 122.488 14.9168 122.488 15.3776V31.1984C122.488 31.6421 122.343 32.0176 122.053 32.3248C121.762 32.6149 121.396 32.76 120.952 32.76C120.508 32.76 120.141 32.6149 119.851 32.3248C119.561 32.0176 119.416 31.6421 119.416 31.1984V29.944L119.979 30.1744C119.979 30.3963 119.86 30.6693 119.621 30.9936C119.382 31.3008 119.057 31.608 118.648 31.9152C118.238 32.2224 117.752 32.4869 117.189 32.7088C116.642 32.9136 116.045 33.016 115.397 33.016C114.219 33.016 113.152 32.7173 112.197 32.12C111.241 31.5056 110.481 30.6693 109.918 29.6112C109.372 28.536 109.099 27.3072 109.099 25.9248C109.099 24.5253 109.372 23.2965 109.918 22.2384C110.481 21.1632 111.232 20.3269 112.171 19.7296C113.11 19.1152 114.151 18.808 115.294 18.808C116.028 18.808 116.702 18.9189 117.317 19.1408C117.931 19.3627 118.46 19.6443 118.904 19.9856C119.365 20.3269 119.714 20.6768 119.953 21.0352C120.209 21.3765 120.337 21.6667 120.337 21.9056L119.416 22.2384V15.3776C119.416 14.9339 119.561 14.5669 119.851 14.2768C120.141 13.9696 120.508 13.816 120.952 13.816ZM115.781 30.2C116.532 30.2 117.189 30.0123 117.752 29.6368C118.315 29.2613 118.75 28.7493 119.057 28.1008C119.382 27.4523 119.544 26.7269 119.544 25.9248C119.544 25.1056 119.382 24.3717 119.057 23.7232C118.75 23.0747 118.315 22.5627 117.752 22.1872C117.189 21.8117 116.532 21.624 115.781 21.624C115.047 21.624 114.398 21.8117 113.835 22.1872C113.272 22.5627 112.828 23.0747 112.504 23.7232C112.197 24.3717 112.043 25.1056 112.043 25.9248C112.043 26.7269 112.197 27.4523 112.504 28.1008C112.828 28.7493 113.272 29.2613 113.835 29.6368C114.398 30.0123 115.047 30.2 115.781 30.2ZM128.707 31.1984C128.707 31.6421 128.562 32.0176 128.272 32.3248C127.981 32.6149 127.615 32.76 127.171 32.76C126.727 32.76 126.36 32.6149 126.07 32.3248C125.78 32.0176 125.635 31.6421 125.635 31.1984V20.6256C125.635 20.1819 125.78 19.8149 126.07 19.5248C126.36 19.2176 126.727 19.064 127.171 19.064C127.615 19.064 127.981 19.2176 128.272 19.5248C128.562 19.8149 128.707 20.1819 128.707 20.6256V31.1984ZM127.145 17.4C126.565 17.4 126.155 17.3061 125.916 17.1184C125.677 16.9307 125.558 16.5979 125.558 16.12V15.6336C125.558 15.1387 125.686 14.8059 125.942 14.6352C126.215 14.4475 126.625 14.3536 127.171 14.3536C127.768 14.3536 128.186 14.4475 128.425 14.6352C128.664 14.8229 128.784 15.1557 128.784 15.6336V16.12C128.784 16.6149 128.656 16.9563 128.4 17.144C128.144 17.3147 127.725 17.4 127.145 17.4Z" fill="#2196F3"/>
<path d="M147.308 14.84C148.946 14.84 150.166 15.224 150.969 15.992C151.771 16.76 152.172 17.8949 152.172 19.3968C152.172 20.1989 151.976 20.9072 151.583 21.5216C151.19 22.1189 150.61 22.5883 149.842 22.9296C149.074 23.2539 148.127 23.416 147.001 23.416L147.103 22.264C147.632 22.264 148.238 22.3408 148.921 22.4944C149.603 22.6309 150.26 22.8869 150.892 23.2624C151.54 23.6208 152.069 24.1328 152.479 24.7984C152.906 25.4469 153.119 26.2832 153.119 27.3072C153.119 28.4336 152.931 29.3552 152.556 30.072C152.197 30.7888 151.72 31.3435 151.122 31.736C150.525 32.1285 149.885 32.4016 149.202 32.5552C148.52 32.6917 147.862 32.76 147.231 32.76H140.857C140.413 32.76 140.037 32.6149 139.73 32.3248C139.44 32.0176 139.295 31.6421 139.295 31.1984V16.4016C139.295 15.9579 139.44 15.5909 139.73 15.3008C140.037 14.9936 140.413 14.84 140.857 14.84H147.308ZM146.847 17.8608H142.29L142.623 17.4512V22.0848L142.316 21.8544H146.924C147.419 21.8544 147.862 21.6923 148.255 21.368C148.648 21.0437 148.844 20.5744 148.844 19.96C148.844 19.2261 148.656 18.6971 148.281 18.3728C147.922 18.0315 147.444 17.8608 146.847 17.8608ZM147.052 24.8752H142.393L142.623 24.6704V30.072L142.367 29.816H147.231C148.016 29.816 148.639 29.6112 149.1 29.2016C149.561 28.7749 149.791 28.1435 149.791 27.3072C149.791 26.5392 149.637 25.9845 149.33 25.6432C149.023 25.3019 148.656 25.0885 148.229 25.0032C147.803 24.9179 147.41 24.8752 147.052 24.8752ZM169.075 25.9248C169.075 27.3243 168.76 28.5616 168.128 29.6368C167.514 30.6949 166.678 31.5227 165.619 32.12C164.578 32.7173 163.409 33.016 162.112 33.016C160.815 33.016 159.638 32.7173 158.579 32.12C157.538 31.5227 156.702 30.6949 156.071 29.6368C155.456 28.5616 155.149 27.3243 155.149 25.9248C155.149 24.5253 155.456 23.2965 156.071 22.2384C156.702 21.1632 157.538 20.3269 158.579 19.7296C159.638 19.1152 160.815 18.808 162.112 18.808C163.409 18.808 164.578 19.1152 165.619 19.7296C166.678 20.3269 167.514 21.1632 168.128 22.2384C168.76 23.2965 169.075 24.5253 169.075 25.9248ZM166.003 25.9248C166.003 25.0544 165.824 24.3035 165.466 23.672C165.124 23.0235 164.655 22.52 164.058 22.1616C163.478 21.8032 162.829 21.624 162.112 21.624C161.395 21.624 160.738 21.8032 160.141 22.1616C159.561 22.52 159.091 23.0235 158.733 23.672C158.392 24.3035 158.221 25.0544 158.221 25.9248C158.221 26.7781 158.392 27.5291 158.733 28.1776C159.091 28.8091 159.561 29.304 160.141 29.6624C160.738 30.0208 161.395 30.2 162.112 30.2C162.829 30.2 163.478 30.0208 164.058 29.6624C164.655 29.304 165.124 28.8091 165.466 28.1776C165.824 27.5291 166.003 26.7781 166.003 25.9248ZM185.05 25.9248C185.05 27.3243 184.735 28.5616 184.103 29.6368C183.489 30.6949 182.653 31.5227 181.594 32.12C180.553 32.7173 179.384 33.016 178.087 33.016C176.79 33.016 175.613 32.7173 174.554 32.12C173.513 31.5227 172.677 30.6949 172.046 29.6368C171.431 28.5616 171.124 27.3243 171.124 25.9248C171.124 24.5253 171.431 23.2965 172.046 22.2384C172.677 21.1632 173.513 20.3269 174.554 19.7296C175.613 19.1152 176.79 18.808 178.087 18.808C179.384 18.808 180.553 19.1152 181.594 19.7296C182.653 20.3269 183.489 21.1632 184.103 22.2384C184.735 23.2965 185.05 24.5253 185.05 25.9248ZM181.978 25.9248C181.978 25.0544 181.799 24.3035 181.441 23.672C181.099 23.0235 180.63 22.52 180.033 22.1616C179.453 21.8032 178.804 21.624 178.087 21.624C177.37 21.624 176.713 21.8032 176.116 22.1616C175.536 22.52 175.066 23.0235 174.708 23.672C174.367 24.3035 174.196 25.0544 174.196 25.9248C174.196 26.7781 174.367 27.5291 174.708 28.1776C175.066 28.8091 175.536 29.304 176.116 29.6624C176.713 30.0208 177.37 30.2 178.087 30.2C178.804 30.2 179.453 30.0208 180.033 29.6624C180.63 29.304 181.099 28.8091 181.441 28.1776C181.799 27.5291 181.978 26.7781 181.978 25.9248ZM189.531 32.76C189.087 32.76 188.72 32.6149 188.43 32.3248C188.14 32.0176 187.995 31.6421 187.995 31.1984V15.3776C187.995 14.9339 188.14 14.5669 188.43 14.2768C188.72 13.9696 189.087 13.816 189.531 13.816C189.975 13.816 190.342 13.9696 190.632 14.2768C190.922 14.5669 191.067 14.9339 191.067 15.3776V31.1984C191.067 31.6421 190.922 32.0176 190.632 32.3248C190.342 32.6149 189.975 32.76 189.531 32.76ZM197.672 19.064C198.064 19.064 198.406 19.2261 198.696 19.5504C198.986 19.8747 199.131 20.1904 199.131 20.4976C199.131 20.9072 198.926 21.2912 198.517 21.6496L190.811 28.7408L190.683 25.208L196.545 19.5504C196.87 19.2261 197.245 19.064 197.672 19.064ZM198.056 32.7344C197.612 32.7344 197.237 32.5637 196.929 32.2224L192.193 27.2048L194.523 25.0544L199.131 30.072C199.455 30.4133 199.617 30.7973 199.617 31.224C199.617 31.6677 199.438 32.0347 199.08 32.3248C198.738 32.5979 198.397 32.7344 198.056 32.7344Z" fill="#333333"/>
</svg>
